<?xml version="1.0" standalone="no"?>
<!DOCTYPE svg PUBLIC "-//W3C//DTD SVG 20010904//EN"
 "http://www.w3.org/TR/2001/REC-SVG-20010904/DTD/svg10.dtd">
<svg version="1.0" xmlns="http://www.w3.org/2000/svg"
 width="128.000000pt" height="128.000000pt" viewBox="0 0 128.000000 128.000000"
 preserveAspectRatio="xMidYMid meet">
<metadata>
Created by potrace 1.13, written by Peter Selinger 2001-2015
</metadata>
<g transform="translate(0.000000,128.000000) scale(0.100000,-0.100000)"
fill="#000000" stroke="none">
<path d="M51 1266 c-51 -28 -50 -21 -51 -623 0 -415 3 -569 12 -588 25 -56 19
-55 628 -55 609 0 603 -1 628 55 9 19 12 173 12 586 0 608 0 602 -55 627 -40
18 -1141 16 -1174 -2z m374 -43 c-4 -10 -89 -234 -189 -498 -101 -264 -185
-487 -189 -495 -3 -8 -6 207 -6 478 -1 479 0 493 19 512 18 18 33 20 196 20
164 0 176 -1 169 -17z m36 -60 c-33 -89 -398 -1050 -408 -1073 -5 -13 -7 -13
-10 1 -2 9 68 205 156 435 147 389 235 620 260 687 6 15 15 27 21 27 5 0 -3
-35 -19 -77z m759 57 c19 -19 20 -33 20 -330 l0 -311 -32 36 c-48 56 -95 75
-180 75 -100 -1 -152 -24 -178 -82 -33 -72 -26 -104 37 -170 l35 -36 -30 -16
c-95 -49 -119 -174 -50 -261 12 -15 39 -40 61 -56 l40 -29 -144 0 -144 0 33
20 c37 23 69 71 78 118 11 56 -4 101 -51 151 l-45 48 31 22 c69 51 75 147 14
219 -44 51 -101 74 -186 74 -112 0 -180 -50 -198 -146 -12 -64 0 -67 16 -4 22
84 70 123 165 134 29 3 64 1 78 -5 21 -8 16 -10 -35 -11 -73 -1 -134 -26 -164
-68 -23 -32 -44 -119 -31 -127 5 -3 11 13 15 35 16 93 80 143 184 144 106 0
151 -29 151 -100 0 -77 -68 -133 -162 -134 -62 0 -62 -20 0 -22 36 -1 39 -2
15 -5 -52 -7 -39 -20 25 -26 101 -9 132 -36 132 -118 0 -110 -111 -184 -240
-159 -28 5 -59 14 -70 20 -27 15 -50 62 -50 104 0 42 -20 60 -21 19 0 -27 -1
-27 -9 -5 -5 12 -7 28 -4 36 3 8 1 17 -5 21 -19 11 -12 -73 8 -113 22 -43 63
-84 106 -106 28 -15 18 -16 -162 -16 -110 0 -193 4 -193 9 0 5 22 67 49 138
60 157 376 987 390 1026 l11 27 335 0 c322 0 336 -1 355 -20z m-59 -596 c28
-14 39 -39 39 -92 0 -25 -9 -43 -33 -67 -84 -84 -287 -56 -287 41 0 39 26 91
55 110 53 35 167 39 226 8z m7 -280 c104 -41 75 -209 -43 -254 -44 -17 -164
-15 -208 4 -96 40 -87 192 13 244 55 27 177 31 238 6z"/>
</g>
</svg>
